# xmcd
#
# Track frame offsets: 
#        150
#        11442
#        23922
#        36411
#        47362
#        60464
#        72022
#        86238
#        97923
#        108453
#        122016
#        136267
#        146728
#        158565
#        169944
#        181576
#        193865
#        203169
#        213990
#        225781
#        235884
#        247286
#        261006
#        273545
#        284590
#        297560
#        309282
#
# Disc length: 4294 seconds
#
# Revision: 0
# Processed by: cddbd v1.5.2PL0 Copyright (c) Steve Scherf et al.
# Submitted via: ExactAudioCopy v0.99pb5
#
DISCID=8310c41b
DTITLE=Running Wild Blues - Little Milton
DYEAR=2006
DGENRE=Blues
TTITLE0=Feed My Body to the Fishes (with Willie Love and His Three Aces)
TTITLE1=Nelson Street Blues (with Willie Love and His Three Aces)
TTITLE2=V-8 Ford (with Willie Love and His Three Aces)
TTITLE3=Beggin' My Baby
TTITLE4=Somebody Told Me
TTITLE5=If You Love Me, Baby
TTITLE6=Alone and Blue (Take 3)
TTITLE7=Looking for My Baby (Take 5)
TTITLE8=Homesick for My Baby
TTITLE9=I Love My Baby (Version 1)
TTITLE10=If Crying Would Help Me
TTITLE11=Untitled (erroneously released as Somebody Told Me)
TTITLE12=Running Wild Blues
TTITLE13=She's My Queen
TTITLE14=Re-Beat
TTITLE15=Oo-Wee, Baby
TTITLE16=I'll See You Some Sweet Day
TTITLE17=I Want You Baby
TTITLE18=Playing the Boogie Woogie
TTITLE19=Come on, Baby
TTITLE20=Carry My Business On (Alternate, Take 1) (with Houston Boines
TTITLE20=)
TTITLE21=Crying in the Courthouse (Alternate, Take 1) (with Houston Bo
TTITLE21=ines)
TTITLE22=Standing at the Station (with Houston Boines)
TTITLE23=I Love My Baby (Alternate - Version 2)
TTITLE24=Lookin' for My Baby (Alternate, Take 2)
TTITLE25=If You Love Me, Baby (Alternate Take)
TTITLE26=Homesick for My Baby (Alternate Take)
EXTD=
EXTT0=
EXTT1=
EXTT2=
EXTT3=
EXTT4=
EXTT5=
EXTT6=
EXTT7=
EXTT8=
EXTT9=
EXTT10=
EXTT11=
EXTT12=
EXTT13=
EXTT14=
EXTT15=
EXTT16=
EXTT17=
EXTT18=
EXTT19=
EXTT20=
EXTT21=
EXTT22=
EXTT23=
EXTT24=
EXTT25=
EXTT26=
PLAYORDER=
